<svg width="200" height="200" viewBox="0 0 200 200" fill="none" xmlns="http://www.w3.org/2000/svg">
<path d="M112.43 99.7895H133.433C133.873 99.7895 134.229 100.147 134.228 100.587L134.166 122.073C134.164 122.782 135.021 123.139 135.523 122.637L157.857 100.303C158.006 100.154 158.09 99.9517 158.09 99.7409V76.7951C158.09 76.356 157.734 76 157.295 76H134.63C134.419 76 134.217 76.0838 134.068 76.2329L111.868 98.4323C111.367 98.9331 111.722 99.7895 112.43 99.7895Z" fill="#00C291"/>
<path d="M62.9975 99.7895H84C84.44 99.7895 84.7963 100.147 84.795 100.587L84.7328 122.073C84.7307 122.782 85.5884 123.139 86.09 122.637L108.424 100.303C108.573 100.154 108.657 99.9517 108.657 99.7409V76.7951C108.657 76.356 108.301 76 107.862 76H85.1969C84.986 76 84.7838 76.0838 84.6347 76.2329L62.4353 98.4323C61.9345 98.9331 62.2892 99.7895 62.9975 99.7895Z" fill="#00C291"/>
<path d="M54.2305 96.3771C54.2305 103.255 59.7561 108.841 66.6101 108.942C59.8464 109.041 54.3708 114.488 54.2278 121.241C54.0852 114.508 48.6468 109.077 41.91 108.948C48.737 108.816 54.2305 103.236 54.2305 96.3771Z" fill="#00C291"/>
</svg>
