<svg width="24" height="24" viewBox="0 0 24 24" fill="none" xmlns="http://www.w3.org/2000/svg">
<rect width="24" height="24" rx="12" fill="#00AC81"/>
<path d="M14.0577 12.0166H17.3117C17.3798 12.0166 17.4351 12.0719 17.4349 12.1401L17.4252 15.4689C17.4249 15.5789 17.5578 15.6341 17.6355 15.5564L21.0958 12.0961C21.1189 12.073 21.1318 12.0417 21.1318 12.009V8.45399C21.1318 8.38596 21.0767 8.33081 21.0087 8.33081H17.4971C17.4644 8.33081 17.4331 8.34379 17.41 8.36689L13.9706 11.8063C13.893 11.8839 13.948 12.0166 14.0577 12.0166Z" fill="white"/>
<path d="M6.39896 12.0166H9.65292C9.72109 12.0166 9.7763 12.0719 9.7761 12.1401L9.76645 15.4689C9.76613 15.5789 9.89901 15.6341 9.97673 15.5564L13.437 12.0961C13.4601 12.073 13.4731 12.0417 13.4731 12.009V8.45399C13.4731 8.38596 13.4179 8.33081 13.3499 8.33081H9.83836C9.80569 8.33081 9.77435 8.34379 9.75125 8.36689L6.31186 11.8063C6.23426 11.8839 6.28922 12.0166 6.39896 12.0166Z" fill="white"/>
<path d="M5.04068 11.4879C5.04068 12.5535 5.89677 13.419 6.95867 13.4346C5.91076 13.45 5.06241 14.2939 5.04025 15.3401C5.01816 14.2969 4.17558 13.4555 3.13184 13.4354C4.18956 13.4151 5.04068 12.5505 5.04068 11.4879Z" fill="white"/>
</svg>
