<svg width="44" height="40" viewBox="0 0 44 40" fill="none" xmlns="http://www.w3.org/2000/svg">
<path d="M14.0574 9.94342C13.3982 9.28417 13.3982 8.21534 14.0574 7.55609L20.8074 0.806087C21.4667 0.146837 22.5355 0.146837 23.1948 0.806087L29.9448 7.55609C30.604 8.21534 30.604 9.28417 29.9448 9.94342C29.6163 10.2719 29.1842 10.4383 28.7522 10.4383C28.3202 10.4383 27.8883 10.2742 27.5598 9.94342L23.6897 6.07348V17.7509C23.6897 18.6824 22.9337 19.4384 22.0022 19.4384C21.0707 19.4384 20.3147 18.6824 20.3147 17.7509V6.07568L16.4448 9.94561C15.7833 10.6026 14.7167 10.6027 14.0574 9.94342ZM33.25 16.0633C32.3185 16.0633 31.5625 16.8193 31.5625 17.7509C31.5625 18.6824 32.3185 19.4384 33.25 19.4384C37.282 19.4384 40.5625 22.7189 40.5625 26.7509V29.0009C40.5625 33.0329 37.282 36.3134 33.25 36.3134H10.75C6.718 36.3134 3.4375 33.0329 3.4375 29.0009V26.7509C3.4375 22.7189 6.718 19.4384 10.75 19.4384C11.6815 19.4384 12.4375 18.6824 12.4375 17.7509C12.4375 16.8193 11.6815 16.0633 10.75 16.0633C4.85725 16.0633 0.0625 20.8581 0.0625 26.7509V29.0009C0.0625 34.8936 4.85725 39.6884 10.75 39.6884H33.25C39.1427 39.6884 43.9375 34.8936 43.9375 29.0009V26.7509C43.9375 20.8581 39.1427 16.0633 33.25 16.0633ZM35.5 26.7509C35.5 25.5089 34.492 24.5009 33.25 24.5009C32.008 24.5009 31 25.5089 31 26.7509C31 27.9929 32.008 29.0009 33.25 29.0009C34.492 29.0009 35.5 27.9929 35.5 26.7509Z" fill="white"/>
</svg>
